<mxfile host="app.diagrams.net" agent="Mozilla/5.0 (Macintosh; Intel Mac OS X 10_15_7) AppleWebKit/537.36 (KHTML, like Gecko) Chrome/129.0.0.0 Safari/537.36" version="26.0.14">
  <diagram name="Page-1" id="FTyDJ3Ww9bF_-OZRR9JX">
    <mxGraphModel dx="789" dy="1617" grid="1" gridSize="10" guides="1" tooltips="1" connect="1" arrows="1" fold="1" page="1" pageScale="1" pageWidth="827" pageHeight="1169" math="0" shadow="0">
      <root>
        <mxCell id="0" />
        <mxCell id="1" parent="0" />
        <mxCell id="keX-lHal4EfQpoDmQV1s-25" value="&lt;b&gt;Block n-1&lt;/b&gt;" style="rounded=0;whiteSpace=wrap;html=1;strokeWidth=2;" vertex="1" parent="1">
          <mxGeometry x="254.5" y="39" width="80" height="60" as="geometry" />
        </mxCell>
        <mxCell id="keX-lHal4EfQpoDmQV1s-26" value="&lt;b&gt;Block n&lt;/b&gt;" style="rounded=0;whiteSpace=wrap;html=1;strokeWidth=2;" vertex="1" parent="1">
          <mxGeometry x="374.5" y="39" width="80" height="60" as="geometry" />
        </mxCell>
        <mxCell id="keX-lHal4EfQpoDmQV1s-27" value="" style="endArrow=none;dashed=1;html=1;rounded=0;entryX=0;entryY=0.5;entryDx=0;entryDy=0;" edge="1" parent="1" source="keX-lHal4EfQpoDmQV1s-25" target="keX-lHal4EfQpoDmQV1s-26">
          <mxGeometry width="50" height="50" relative="1" as="geometry">
            <mxPoint x="174.5" y="69" as="sourcePoint" />
            <mxPoint x="234.5" y="68.5" as="targetPoint" />
          </mxGeometry>
        </mxCell>
        <mxCell id="keX-lHal4EfQpoDmQV1s-29" value="&lt;b&gt;Block n-2&lt;/b&gt;" style="rounded=0;whiteSpace=wrap;html=1;strokeWidth=2;" vertex="1" parent="1">
          <mxGeometry x="134.5" y="39" width="80" height="60" as="geometry" />
        </mxCell>
        <mxCell id="keX-lHal4EfQpoDmQV1s-30" value="" style="endArrow=none;dashed=1;html=1;rounded=0;exitX=1;exitY=0.5;exitDx=0;exitDy=0;entryX=0;entryY=0.5;entryDx=0;entryDy=0;" edge="1" parent="1" source="keX-lHal4EfQpoDmQV1s-29" target="keX-lHal4EfQpoDmQV1s-25">
          <mxGeometry width="50" height="50" relative="1" as="geometry">
            <mxPoint x="344.5" y="79" as="sourcePoint" />
            <mxPoint x="254.5" y="69" as="targetPoint" />
          </mxGeometry>
        </mxCell>
        <mxCell id="keX-lHal4EfQpoDmQV1s-35" value="" style="shape=curlyBracket;whiteSpace=wrap;html=1;rounded=1;labelPosition=left;verticalLabelPosition=middle;align=right;verticalAlign=middle;rotation=90;strokeWidth=2;" vertex="1" parent="1">
          <mxGeometry x="204.5" y="-100" width="20" height="250" as="geometry" />
        </mxCell>
        <mxCell id="keX-lHal4EfQpoDmQV1s-36" value="&lt;b&gt;Confirmed&lt;/b&gt;" style="text;html=1;align=center;verticalAlign=middle;resizable=0;points=[];autosize=1;strokeColor=none;fillColor=none;" vertex="1" parent="1">
          <mxGeometry x="174.5" y="-6" width="80" height="30" as="geometry" />
        </mxCell>
        <mxCell id="keX-lHal4EfQpoDmQV1s-37" value="" style="shape=actor;whiteSpace=wrap;html=1;strokeWidth=2;fillColor=#e1d5e7;strokeColor=#9673a6;" vertex="1" parent="1">
          <mxGeometry x="280" y="160" width="40" height="50" as="geometry" />
        </mxCell>
        <mxCell id="keX-lHal4EfQpoDmQV1s-38" value="" style="shape=actor;whiteSpace=wrap;html=1;strokeWidth=2;fillColor=#dae8fc;strokeColor=#6c8ebf;" vertex="1" parent="1">
          <mxGeometry x="398.25" y="296" width="40" height="50" as="geometry" />
        </mxCell>
        <mxCell id="keX-lHal4EfQpoDmQV1s-39" value="" style="shape=actor;whiteSpace=wrap;html=1;strokeWidth=2;fillColor=#dae8fc;strokeColor=#6c8ebf;" vertex="1" parent="1">
          <mxGeometry x="224.25" y="296" width="40" height="50" as="geometry" />
        </mxCell>
        <mxCell id="keX-lHal4EfQpoDmQV1s-40" value="" style="shape=actor;whiteSpace=wrap;html=1;strokeWidth=2;fillColor=#dae8fc;strokeColor=#6c8ebf;" vertex="1" parent="1">
          <mxGeometry x="104.25" y="296" width="40" height="50" as="geometry" />
        </mxCell>
        <mxCell id="keX-lHal4EfQpoDmQV1s-41" value="" style="shape=actor;whiteSpace=wrap;html=1;strokeWidth=2;fillColor=#fff2cc;strokeColor=#d6b656;" vertex="1" parent="1">
          <mxGeometry x="104.25" y="440" width="40" height="50" as="geometry" />
        </mxCell>
        <mxCell id="keX-lHal4EfQpoDmQV1s-42" value="" style="shape=actor;whiteSpace=wrap;html=1;strokeWidth=2;fillColor=#fff2cc;strokeColor=#d6b656;" vertex="1" parent="1">
          <mxGeometry x="283.25" y="440" width="40" height="50" as="geometry" />
        </mxCell>
        <mxCell id="keX-lHal4EfQpoDmQV1s-43" value="" style="shape=actor;whiteSpace=wrap;html=1;strokeWidth=2;fillColor=#fff2cc;strokeColor=#d6b656;" vertex="1" parent="1">
          <mxGeometry x="225.75" y="440" width="40" height="50" as="geometry" />
        </mxCell>
        <mxCell id="keX-lHal4EfQpoDmQV1s-44" value="" style="shape=actor;whiteSpace=wrap;html=1;strokeWidth=2;fillColor=#fff2cc;strokeColor=#d6b656;" vertex="1" parent="1">
          <mxGeometry x="164.25" y="440" width="40" height="50" as="geometry" />
        </mxCell>
        <mxCell id="keX-lHal4EfQpoDmQV1s-45" value="" style="shape=actor;whiteSpace=wrap;html=1;strokeWidth=2;fillColor=#fff2cc;strokeColor=#d6b656;" vertex="1" parent="1">
          <mxGeometry x="398.25" y="440" width="40" height="50" as="geometry" />
        </mxCell>
        <mxCell id="keX-lHal4EfQpoDmQV1s-57" value="" style="group" vertex="1" connectable="0" parent="1">
          <mxGeometry x="91.5" y="69" width="26" height="6" as="geometry" />
        </mxCell>
        <mxCell id="keX-lHal4EfQpoDmQV1s-53" value="" style="ellipse;shape=doubleEllipse;whiteSpace=wrap;html=1;aspect=fixed;fillColor=#000000;" vertex="1" parent="keX-lHal4EfQpoDmQV1s-57">
          <mxGeometry x="-1" width="6" height="6" as="geometry" />
        </mxCell>
        <mxCell id="keX-lHal4EfQpoDmQV1s-54" value="" style="ellipse;shape=doubleEllipse;whiteSpace=wrap;html=1;aspect=fixed;fillColor=#000000;" vertex="1" parent="keX-lHal4EfQpoDmQV1s-57">
          <mxGeometry x="10" width="6" height="6" as="geometry" />
        </mxCell>
        <mxCell id="keX-lHal4EfQpoDmQV1s-55" value="" style="ellipse;shape=doubleEllipse;whiteSpace=wrap;html=1;aspect=fixed;fillColor=#000000;" vertex="1" parent="keX-lHal4EfQpoDmQV1s-57">
          <mxGeometry x="21" width="6" height="6" as="geometry" />
        </mxCell>
        <mxCell id="keX-lHal4EfQpoDmQV1s-61" value="" style="group" vertex="1" connectable="0" parent="1">
          <mxGeometry x="355.25" y="332" width="26" height="6" as="geometry" />
        </mxCell>
        <mxCell id="keX-lHal4EfQpoDmQV1s-62" value="" style="ellipse;shape=doubleEllipse;whiteSpace=wrap;html=1;aspect=fixed;fillColor=#000000;" vertex="1" parent="keX-lHal4EfQpoDmQV1s-61">
          <mxGeometry x="-1" width="6" height="6" as="geometry" />
        </mxCell>
        <mxCell id="keX-lHal4EfQpoDmQV1s-63" value="" style="ellipse;shape=doubleEllipse;whiteSpace=wrap;html=1;aspect=fixed;fillColor=#000000;" vertex="1" parent="keX-lHal4EfQpoDmQV1s-61">
          <mxGeometry x="10" width="6" height="6" as="geometry" />
        </mxCell>
        <mxCell id="keX-lHal4EfQpoDmQV1s-64" value="" style="ellipse;shape=doubleEllipse;whiteSpace=wrap;html=1;aspect=fixed;fillColor=#000000;" vertex="1" parent="keX-lHal4EfQpoDmQV1s-61">
          <mxGeometry x="21" width="6" height="6" as="geometry" />
        </mxCell>
        <mxCell id="keX-lHal4EfQpoDmQV1s-73" value="" style="endArrow=classic;html=1;rounded=0;exitX=0.5;exitY=0;exitDx=0;exitDy=0;entryX=0.5;entryY=1;entryDx=0;entryDy=0;" edge="1" parent="1" source="keX-lHal4EfQpoDmQV1s-40" target="keX-lHal4EfQpoDmQV1s-37">
          <mxGeometry width="50" height="50" relative="1" as="geometry">
            <mxPoint x="185" y="270" as="sourcePoint" />
            <mxPoint x="235" y="220" as="targetPoint" />
            <Array as="points" />
          </mxGeometry>
        </mxCell>
        <mxCell id="keX-lHal4EfQpoDmQV1s-74" value="" style="endArrow=classic;html=1;rounded=0;exitX=0.5;exitY=0;exitDx=0;exitDy=0;" edge="1" parent="1" source="keX-lHal4EfQpoDmQV1s-39">
          <mxGeometry width="50" height="50" relative="1" as="geometry">
            <mxPoint x="250" y="260" as="sourcePoint" />
            <mxPoint x="300" y="210" as="targetPoint" />
          </mxGeometry>
        </mxCell>
        <mxCell id="keX-lHal4EfQpoDmQV1s-75" value="" style="endArrow=classic;html=1;rounded=0;exitX=0.335;exitY=0.068;exitDx=0;exitDy=0;strokeWidth=2;exitPerimeter=0;" edge="1" parent="1" source="keX-lHal4EfQpoDmQV1s-38">
          <mxGeometry width="50" height="50" relative="1" as="geometry">
            <mxPoint x="340" y="390" as="sourcePoint" />
            <mxPoint x="300" y="210" as="targetPoint" />
          </mxGeometry>
        </mxCell>
        <mxCell id="keX-lHal4EfQpoDmQV1s-76" value="&lt;b&gt;Header&lt;/b&gt;" style="rounded=1;whiteSpace=wrap;html=1;" vertex="1" parent="1">
          <mxGeometry x="159.25" y="290" width="50" height="20" as="geometry" />
        </mxCell>
        <mxCell id="keX-lHal4EfQpoDmQV1s-77" value="&lt;div&gt;&lt;span style=&quot;background-color: transparent; color: light-dark(rgb(0, 0, 0), rgb(255, 255, 255));&quot;&gt;&lt;font style=&quot;font-size: 9px;&quot;&gt;0x4837...Ya5f97&lt;/font&gt;&lt;/span&gt;&lt;/div&gt;&lt;div&gt;&lt;div&gt;&lt;font size=&quot;1&quot;&gt;to&lt;/font&gt;&lt;/div&gt;&lt;/div&gt;&lt;div&gt;&lt;div&gt;&lt;font style=&quot;font-size: 9px;&quot;&gt;0x5050...bf6C9&lt;/font&gt;&lt;/div&gt;&lt;/div&gt;" style="text;html=1;align=center;verticalAlign=middle;resizable=0;points=[];autosize=1;strokeColor=none;fillColor=none;" vertex="1" parent="1">
          <mxGeometry x="139.25" y="305" width="90" height="60" as="geometry" />
        </mxCell>
        <mxCell id="keX-lHal4EfQpoDmQV1s-78" value="Header" style="rounded=1;whiteSpace=wrap;html=1;fontStyle=1" vertex="1" parent="1">
          <mxGeometry x="279.25" y="290" width="50" height="20" as="geometry" />
        </mxCell>
        <mxCell id="keX-lHal4EfQpoDmQV1s-80" value="Header" style="rounded=1;whiteSpace=wrap;html=1;fontStyle=1" vertex="1" parent="1">
          <mxGeometry x="453.75" y="290" width="50" height="20" as="geometry" />
        </mxCell>
        <mxCell id="keX-lHal4EfQpoDmQV1s-81" value="&lt;font style=&quot;font-size: 9px;&quot;&gt;0x9F23...07F66B&lt;/font&gt;&lt;div&gt;&lt;font size=&quot;1&quot;&gt;to&lt;/font&gt;&lt;/div&gt;&lt;div&gt;&lt;font style=&quot;font-size: 9px;&quot;&gt;0x68F7...Zc2981&lt;/font&gt;&lt;br&gt;&lt;/div&gt;" style="text;html=1;align=center;verticalAlign=middle;resizable=0;points=[];autosize=1;strokeColor=none;fillColor=none;" vertex="1" parent="1">
          <mxGeometry x="433.75" y="305" width="90" height="60" as="geometry" />
        </mxCell>
        <mxCell id="keX-lHal4EfQpoDmQV1s-83" value="" style="endArrow=classic;html=1;rounded=0;exitX=0.9;exitY=0.5;exitDx=0;exitDy=0;exitPerimeter=0;entryX=0.5;entryY=1;entryDx=0;entryDy=0;" edge="1" parent="1" source="keX-lHal4EfQpoDmQV1s-37" target="keX-lHal4EfQpoDmQV1s-26">
          <mxGeometry width="50" height="50" relative="1" as="geometry">
            <mxPoint x="340" y="290" as="sourcePoint" />
            <mxPoint x="390" y="240" as="targetPoint" />
          </mxGeometry>
        </mxCell>
        <mxCell id="keX-lHal4EfQpoDmQV1s-84" value="" style="endArrow=classic;html=1;rounded=0;exitX=0.25;exitY=1;exitDx=0;exitDy=0;entryX=0.75;entryY=0.25;entryDx=0;entryDy=0;entryPerimeter=0;" edge="1" parent="1" source="keX-lHal4EfQpoDmQV1s-26" target="keX-lHal4EfQpoDmQV1s-37">
          <mxGeometry width="50" height="50" relative="1" as="geometry">
            <mxPoint x="340" y="290" as="sourcePoint" />
            <mxPoint x="390" y="240" as="targetPoint" />
          </mxGeometry>
        </mxCell>
        <mxCell id="keX-lHal4EfQpoDmQV1s-85" value="" style="endArrow=classic;html=1;rounded=0;exitX=0.929;exitY=1.036;exitDx=0;exitDy=0;exitPerimeter=0;strokeWidth=2;entryX=0.635;entryY=0.023;entryDx=0;entryDy=0;entryPerimeter=0;" edge="1" parent="1" source="keX-lHal4EfQpoDmQV1s-37" target="keX-lHal4EfQpoDmQV1s-38">
          <mxGeometry width="50" height="50" relative="1" as="geometry">
            <mxPoint x="340" y="290" as="sourcePoint" />
            <mxPoint x="420" y="260" as="targetPoint" />
          </mxGeometry>
        </mxCell>
        <mxCell id="keX-lHal4EfQpoDmQV1s-86" value="" style="group" vertex="1" connectable="0" parent="1">
          <mxGeometry x="352.25" y="474" width="26" height="6" as="geometry" />
        </mxCell>
        <mxCell id="keX-lHal4EfQpoDmQV1s-87" value="" style="ellipse;shape=doubleEllipse;whiteSpace=wrap;html=1;aspect=fixed;fillColor=#000000;" vertex="1" parent="keX-lHal4EfQpoDmQV1s-86">
          <mxGeometry x="-1" width="6" height="6" as="geometry" />
        </mxCell>
        <mxCell id="keX-lHal4EfQpoDmQV1s-88" value="" style="ellipse;shape=doubleEllipse;whiteSpace=wrap;html=1;aspect=fixed;fillColor=#000000;" vertex="1" parent="keX-lHal4EfQpoDmQV1s-86">
          <mxGeometry x="10" width="6" height="6" as="geometry" />
        </mxCell>
        <mxCell id="keX-lHal4EfQpoDmQV1s-89" value="" style="ellipse;shape=doubleEllipse;whiteSpace=wrap;html=1;aspect=fixed;fillColor=#000000;" vertex="1" parent="keX-lHal4EfQpoDmQV1s-86">
          <mxGeometry x="21" width="6" height="6" as="geometry" />
        </mxCell>
        <mxCell id="keX-lHal4EfQpoDmQV1s-91" value="&lt;font style=&quot;font-size: 9px;&quot;&gt;0x38A1...4984cc&lt;/font&gt;&lt;div&gt;&lt;font size=&quot;1&quot;&gt;to&lt;/font&gt;&lt;/div&gt;&lt;div&gt;&lt;font style=&quot;font-size: 9px;&quot;&gt;0x1F9B...eDd84c&lt;/font&gt;&lt;br&gt;&lt;/div&gt;" style="text;html=1;align=center;verticalAlign=middle;resizable=0;points=[];autosize=1;strokeColor=none;fillColor=none;" vertex="1" parent="1">
          <mxGeometry x="259.25" y="305" width="90" height="60" as="geometry" />
        </mxCell>
        <mxCell id="keX-lHal4EfQpoDmQV1s-96" value="RANDAO selected proposer for block n" style="text;html=1;align=center;verticalAlign=middle;whiteSpace=wrap;rounded=0;" vertex="1" parent="1">
          <mxGeometry x="250.5" y="120" width="99" height="20" as="geometry" />
        </mxCell>
        <mxCell id="keX-lHal4EfQpoDmQV1s-97" value="" style="shape=actor;whiteSpace=wrap;html=1;strokeWidth=2;fillColor=#e1d5e7;strokeColor=#9673a6;" vertex="1" parent="1">
          <mxGeometry x="194.5" y="160" width="40" height="50" as="geometry" />
        </mxCell>
        <mxCell id="keX-lHal4EfQpoDmQV1s-98" value="" style="group" vertex="1" connectable="0" parent="1">
          <mxGeometry x="365.25" y="192" width="26" height="6" as="geometry" />
        </mxCell>
        <mxCell id="keX-lHal4EfQpoDmQV1s-99" value="" style="ellipse;shape=doubleEllipse;whiteSpace=wrap;html=1;aspect=fixed;fillColor=#000000;" vertex="1" parent="keX-lHal4EfQpoDmQV1s-98">
          <mxGeometry x="-1" width="6" height="6" as="geometry" />
        </mxCell>
        <mxCell id="keX-lHal4EfQpoDmQV1s-100" value="" style="ellipse;shape=doubleEllipse;whiteSpace=wrap;html=1;aspect=fixed;fillColor=#000000;" vertex="1" parent="keX-lHal4EfQpoDmQV1s-98">
          <mxGeometry x="10" width="6" height="6" as="geometry" />
        </mxCell>
        <mxCell id="keX-lHal4EfQpoDmQV1s-101" value="" style="ellipse;shape=doubleEllipse;whiteSpace=wrap;html=1;aspect=fixed;fillColor=#000000;" vertex="1" parent="keX-lHal4EfQpoDmQV1s-98">
          <mxGeometry x="21" width="6" height="6" as="geometry" />
        </mxCell>
        <mxCell id="keX-lHal4EfQpoDmQV1s-106" value="" style="shape=actor;whiteSpace=wrap;html=1;strokeWidth=2;fillColor=#e1d5e7;strokeColor=#9673a6;" vertex="1" parent="1">
          <mxGeometry x="414" y="160" width="40" height="50" as="geometry" />
        </mxCell>
        <mxCell id="keX-lHal4EfQpoDmQV1s-108" value="" style="endArrow=classic;html=1;rounded=0;entryX=0.5;entryY=1;entryDx=0;entryDy=0;exitX=0.5;exitY=0;exitDx=0;exitDy=0;" edge="1" parent="1" source="keX-lHal4EfQpoDmQV1s-41" target="keX-lHal4EfQpoDmQV1s-39">
          <mxGeometry width="50" height="50" relative="1" as="geometry">
            <mxPoint x="124.5" y="415" as="sourcePoint" />
            <mxPoint x="240" y="350" as="targetPoint" />
          </mxGeometry>
        </mxCell>
        <mxCell id="keX-lHal4EfQpoDmQV1s-109" value="" style="endArrow=classic;html=1;rounded=0;entryX=0.5;entryY=1;entryDx=0;entryDy=0;exitX=0.5;exitY=0;exitDx=0;exitDy=0;" edge="1" parent="1" source="keX-lHal4EfQpoDmQV1s-44" target="keX-lHal4EfQpoDmQV1s-40">
          <mxGeometry width="50" height="50" relative="1" as="geometry">
            <mxPoint x="184.5" y="415" as="sourcePoint" />
            <mxPoint x="234.5" y="365" as="targetPoint" />
          </mxGeometry>
        </mxCell>
        <mxCell id="keX-lHal4EfQpoDmQV1s-110" value="" style="endArrow=classic;html=1;rounded=0;entryX=0.5;entryY=1;entryDx=0;entryDy=0;exitX=0.494;exitY=-0.052;exitDx=0;exitDy=0;exitPerimeter=0;" edge="1" parent="1" source="keX-lHal4EfQpoDmQV1s-41" target="keX-lHal4EfQpoDmQV1s-40">
          <mxGeometry width="50" height="50" relative="1" as="geometry">
            <mxPoint x="124.5" y="415" as="sourcePoint" />
            <mxPoint x="130" y="350" as="targetPoint" />
          </mxGeometry>
        </mxCell>
        <mxCell id="keX-lHal4EfQpoDmQV1s-111" value="" style="endArrow=classic;html=1;rounded=0;exitX=0.5;exitY=0;exitDx=0;exitDy=0;entryX=0.5;entryY=1;entryDx=0;entryDy=0;" edge="1" parent="1" source="keX-lHal4EfQpoDmQV1s-43" target="keX-lHal4EfQpoDmQV1s-39">
          <mxGeometry width="50" height="50" relative="1" as="geometry">
            <mxPoint x="220" y="420" as="sourcePoint" />
            <mxPoint x="270" y="370" as="targetPoint" />
          </mxGeometry>
        </mxCell>
        <mxCell id="keX-lHal4EfQpoDmQV1s-112" value="" style="endArrow=classic;html=1;rounded=0;exitX=0.5;exitY=0;exitDx=0;exitDy=0;" edge="1" parent="1" source="keX-lHal4EfQpoDmQV1s-43">
          <mxGeometry width="50" height="50" relative="1" as="geometry">
            <mxPoint x="240" y="416" as="sourcePoint" />
            <mxPoint x="370" y="350" as="targetPoint" />
          </mxGeometry>
        </mxCell>
        <mxCell id="keX-lHal4EfQpoDmQV1s-113" value="" style="endArrow=classic;html=1;rounded=0;exitX=0.5;exitY=0;exitDx=0;exitDy=0;entryX=0.5;entryY=1;entryDx=0;entryDy=0;" edge="1" parent="1" source="keX-lHal4EfQpoDmQV1s-42" target="keX-lHal4EfQpoDmQV1s-38">
          <mxGeometry width="50" height="50" relative="1" as="geometry">
            <mxPoint x="320" y="420" as="sourcePoint" />
            <mxPoint x="370" y="370" as="targetPoint" />
          </mxGeometry>
        </mxCell>
        <mxCell id="keX-lHal4EfQpoDmQV1s-114" value="" style="endArrow=classic;html=1;rounded=0;exitX=0.5;exitY=0;exitDx=0;exitDy=0;" edge="1" parent="1" source="keX-lHal4EfQpoDmQV1s-42">
          <mxGeometry width="50" height="50" relative="1" as="geometry">
            <mxPoint x="300" y="420" as="sourcePoint" />
            <mxPoint x="370" y="350" as="targetPoint" />
          </mxGeometry>
        </mxCell>
        <mxCell id="keX-lHal4EfQpoDmQV1s-115" value="" style="endArrow=classic;html=1;rounded=0;exitX=0.5;exitY=0;exitDx=0;exitDy=0;entryX=0.5;entryY=1;entryDx=0;entryDy=0;" edge="1" parent="1" source="keX-lHal4EfQpoDmQV1s-42" target="keX-lHal4EfQpoDmQV1s-39">
          <mxGeometry width="50" height="50" relative="1" as="geometry">
            <mxPoint x="194.5" y="396" as="sourcePoint" />
            <mxPoint x="244.5" y="346" as="targetPoint" />
          </mxGeometry>
        </mxCell>
        <mxCell id="keX-lHal4EfQpoDmQV1s-116" value="" style="endArrow=classic;html=1;rounded=0;exitX=0.5;exitY=0;exitDx=0;exitDy=0;entryX=0.5;entryY=1;entryDx=0;entryDy=0;" edge="1" parent="1" source="keX-lHal4EfQpoDmQV1s-45" target="keX-lHal4EfQpoDmQV1s-38">
          <mxGeometry width="50" height="50" relative="1" as="geometry">
            <mxPoint x="398.25" y="415" as="sourcePoint" />
            <mxPoint x="430" y="370" as="targetPoint" />
          </mxGeometry>
        </mxCell>
        <mxCell id="keX-lHal4EfQpoDmQV1s-117" value="" style="endArrow=classic;html=1;rounded=0;" edge="1" parent="1">
          <mxGeometry width="50" height="50" relative="1" as="geometry">
            <mxPoint x="370" y="440" as="sourcePoint" />
            <mxPoint x="370" y="350" as="targetPoint" />
          </mxGeometry>
        </mxCell>
        <mxCell id="keX-lHal4EfQpoDmQV1s-118" value="" style="endArrow=none;html=1;rounded=0;" edge="1" parent="1">
          <mxGeometry width="50" height="50" relative="1" as="geometry">
            <mxPoint x="499.75" y="290" as="sourcePoint" />
            <mxPoint x="549.75" y="240" as="targetPoint" />
          </mxGeometry>
        </mxCell>
        <mxCell id="keX-lHal4EfQpoDmQV1s-119" value="" style="endArrow=none;html=1;rounded=0;" edge="1" parent="1">
          <mxGeometry width="50" height="50" relative="1" as="geometry">
            <mxPoint x="500" y="290" as="sourcePoint" />
            <mxPoint x="570" y="260" as="targetPoint" />
          </mxGeometry>
        </mxCell>
        <mxCell id="keX-lHal4EfQpoDmQV1s-121" value="&lt;b&gt;Header&lt;/b&gt;&lt;div&gt;Parent block&#39;s hash&lt;/div&gt;&lt;div&gt;Timestamp&lt;/div&gt;&lt;div&gt;Builder signature&lt;/div&gt;&lt;div&gt;Bid value&lt;/div&gt;" style="rounded=1;whiteSpace=wrap;html=1;" vertex="1" parent="1">
          <mxGeometry x="503.75" y="180" width="120" height="80" as="geometry" />
        </mxCell>
        <mxCell id="keX-lHal4EfQpoDmQV1s-122" value="&lt;h3&gt;&lt;font style=&quot;color: light-dark(rgb(151, 115, 166), rgb(105, 70, 122));&quot;&gt;Proposers&lt;/font&gt;&lt;/h3&gt;" style="text;html=1;align=center;verticalAlign=middle;resizable=0;points=[];autosize=1;strokeColor=none;fillColor=none;" vertex="1" parent="1">
          <mxGeometry x="14.25" y="170" width="90" height="60" as="geometry" />
        </mxCell>
        <mxCell id="keX-lHal4EfQpoDmQV1s-123" value="&lt;h3&gt;&lt;font style=&quot;color: light-dark(rgb(110, 145, 191), rgb(105, 70, 122));&quot;&gt;Builders&lt;/font&gt;&lt;/h3&gt;" style="text;html=1;align=center;verticalAlign=middle;resizable=0;points=[];autosize=1;strokeColor=none;fillColor=none;" vertex="1" parent="1">
          <mxGeometry x="19.25" y="305" width="80" height="60" as="geometry" />
        </mxCell>
        <mxCell id="keX-lHal4EfQpoDmQV1s-124" value="&lt;h3&gt;&lt;font style=&quot;color: light-dark(rgb(214, 182, 86), rgb(105, 70, 122));&quot;&gt;Users&lt;/font&gt;&lt;/h3&gt;" style="text;html=1;align=center;verticalAlign=middle;resizable=0;points=[];autosize=1;strokeColor=none;fillColor=none;" vertex="1" parent="1">
          <mxGeometry x="29.25" y="447" width="60" height="60" as="geometry" />
        </mxCell>
        <mxCell id="keX-lHal4EfQpoDmQV1s-125" value="" style="shape=image;html=1;verticalAlign=top;verticalLabelPosition=bottom;labelBackgroundColor=#ffffff;imageAspect=0;aspect=fixed;image=https://cdn0.iconfinder.com/data/icons/basic-e-commerce-line/48/Receipt_success-128.png" vertex="1" parent="1">
          <mxGeometry x="104.25" y="390" width="17.25" height="17.25" as="geometry" />
        </mxCell>
      </root>
    </mxGraphModel>
  </diagram>
</mxfile>
